# xmcd
#
# Track frame offsets:
#	150
#	19692
#	36777
#	57948
#	77399
#	95304
#	112794
#	134268
#	158350
#	175284
#	189412
#	211296
#	229892
#
# Disc length: 3341 seconds
#
# Revision: 0
# Processed by: cddbd v1.5.2PL0 Copyright (c) Steve Scherf et al.
# Submitted via: audiograbber 1.83.01
#
DISCID=940d0b0d
DTITLE=Martin Schmitt - Aufbassn
DYEAR=2012
DGENRE=Blues
TTITLE0=Is denn des zuvui verlangt
TTITLE1=Da mada wa da
TTITLE2=Sehnot
TTITLE3=Aufbassn!
TTITLE4=Nimma Dahoam
TTITLE5=Des gehd ned guad
TTITLE6=Ohne Worte
TTITLE7=Am Kinderbett
TTITLE8=Sixdas
TTITLE9=Schmittish Airways
TTITLE10=Ned normal
TTITLE11=Der Nektar ist ein Fluﬂ
TTITLE12=Schau nach vorn
EXTD=
EXTT0=
EXTT1=
EXTT2=
EXTT3=
EXTT4=
EXTT5=
EXTT6=
EXTT7=
EXTT8=
EXTT9=
EXTT10=
EXTT11=
EXTT12=
PLAYORDER=
